<svg xmlns="http://www.w3.org/2000/svg" width="33.482" height="23.006" viewBox="0 0 33.482 23.006">
  <g id="united-states" transform="translate(0 -77.6)">
    <path id="Path_37872" data-name="Path 37872" d="M33.482,101.974a3.262,3.262,0,0,1-3.24,3.294h-27A3.262,3.262,0,0,1,0,101.974V85.557A2.987,2.987,0,0,1,3.24,82.6h27a2.987,2.987,0,0,1,3.24,2.957Z" transform="translate(0 -4.662)" fill="#fff"/>
    <g id="Group_37750" data-name="Group 37750" transform="translate(0 81.218)">
      <path id="Path_37875" data-name="Path 37875" d="M4.9,391.107a3.23,3.23,0,0,0,2.734,1.829c.061,0,.115.007.176.007H34.832a2.048,2.048,0,0,0,.311-.047c.115-.04.128-.135.041-.209l-.027-.027L33.326,391.1H4.9Z" transform="translate(-4.569 -373.555)" fill="#b22234"/>
      <path id="Path_37876" data-name="Path 37876" d="M8.161,131.2H0v1.755H10.22Z" transform="translate(0 -131.2)" fill="#b22234"/>
      <path id="Path_37877" data-name="Path 37877" d="M12.279,183.2H0v1.755H14.345Z" transform="translate(0 -179.69)" fill="#b22234"/>
      <path id="Path_37878" data-name="Path 37878" d="M16.39,235.2H0v1.782H18.442Z" transform="translate(0 -228.179)" fill="#b22234"/>
      <path id="Path_37879" data-name="Path 37879" d="M20.494,287.2H0v1.782H22.6Z" transform="translate(0 -276.669)" fill="#b22234"/>
      <path id="Path_37880" data-name="Path 37880" d="M25.206,339.679l-.567-.479H0v1.782H26.7Z" transform="translate(0 -325.159)" fill="#b22234"/>
    </g>
    <path id="Path_37881" data-name="Path 37881" d="M45.576,418.307a1.534,1.534,0,0,1-.176-.007A1.534,1.534,0,0,0,45.576,418.307Z" transform="translate(-42.335 -317.701)" fill="#fff"/>
    <g id="Group_37751" data-name="Group 37751" transform="translate(7.486 81.218)">
      <path id="Path_37882" data-name="Path 37882" d="M119.507,131.2H110.9l2.059,1.755h12.272Z" transform="translate(-110.9 -131.2)" fill="#8c1126"/>
      <path id="Path_37883" data-name="Path 37883" d="M173.966,184.955h19.306l-5.718-1.755H171.9Z" transform="translate(-167.782 -179.69)" fill="#8c1126"/>
      <path id="Path_37884" data-name="Path 37884" d="M235.093,236.982h15.661V235.2H233Z" transform="translate(-224.758 -228.179)" fill="#8c1126"/>
      <path id="Path_37885" data-name="Path 37885" d="M296.093,288.982h11.543V287.2H294Z" transform="translate(-281.64 -276.669)" fill="#8c1126"/>
      <path id="Path_37886" data-name="Path 37886" d="M355.754,339.679l1.526,1.3H364.7V339.2h-9.5Z" transform="translate(-338.709 -325.159)" fill="#8c1126"/>
    </g>
    <g id="Group_37752" data-name="Group 37752" transform="translate(0.331 77.6)">
      <path id="Path_37887" data-name="Path 37887" d="M222.5,131.2l4.287,1.316,1.431.439h12.745V131.2Z" transform="translate(-207.811 -127.582)" fill="#5b0218"/>
      <path id="Path_37888" data-name="Path 37888" d="M392,183.2l5.724,1.755h1.3V183.2Z" transform="translate(-365.869 -176.071)" fill="#5b0218"/>
      <path id="Path_37889" data-name="Path 37889" d="M37.4,78.916a3.862,3.862,0,0,0-.3-.358,3.187,3.187,0,0,0-2.113-.952c-.054,0-.115-.007-.169-.007H7.809a3.355,3.355,0,0,0-2.322.992,3.321,3.321,0,0,0-.587.844H37.714A2.715,2.715,0,0,0,37.4,78.916Z" transform="translate(-4.9 -77.6)" fill="#5b0218"/>
    </g>
    <path id="Path_37890" data-name="Path 37890" d="M421.163,391.2H416.1l2.153,1.836A3.241,3.241,0,0,0,421.163,391.2Z" transform="translate(-388.011 -292.431)" fill="#8c1126"/>
    <path id="Path_37891" data-name="Path 37891" d="M0,80.894v9.073H14.527V77.6H3.024A3.261,3.261,0,0,0,0,80.894Z" fill="#3c3b6e"/>
    <path id="Path_37892" data-name="Path 37892" d="M59.287,87.213V77.6H48Z" transform="translate(-44.76)" fill="#1e1e44"/>
    <path id="Path_37893" data-name="Path 37893" d="M59.287,81.056V77.6H48Z" transform="translate(-44.76)"/>
    <g id="Group_37753" data-name="Group 37753" transform="translate(1.242 78.14)">
      <path id="Path_37894" data-name="Path 37894" d="M60.8,86.3l.216-.7.27.7Z" transform="translate(-57.938 -85.6)" fill="#fff"/>
      <path id="Path_37895" data-name="Path 37895" d="M104,86.3l.216-.7.216.7Z" transform="translate(-98.222 -85.6)" fill="#fff"/>
      <path id="Path_37896" data-name="Path 37896" d="M146.4,86.3l.27-.7.216.7Z" transform="translate(-137.759 -85.6)" fill="#fff"/>
      <path id="Path_37897" data-name="Path 37897" d="M189.6,86.3l.216-.7.27.7Z" transform="translate(-178.043 -85.6)" fill="#fff"/>
      <path id="Path_37898" data-name="Path 37898" d="M39.2,104.7l.27-.7.216.7Z" transform="translate(-37.796 -102.758)" fill="#fff"/>
      <path id="Path_37899" data-name="Path 37899" d="M82.4,104.7l.216-.7.27.7Z" transform="translate(-78.08 -102.758)" fill="#fff"/>
      <path id="Path_37900" data-name="Path 37900" d="M125.6,104.7l.216-.7.216.7Z" transform="translate(-118.363 -102.758)" fill="#fff"/>
      <path id="Path_37901" data-name="Path 37901" d="M168,104.7l.216-.7.27.7Z" transform="translate(-157.901 -102.758)" fill="#fff"/>
      <path id="Path_37902" data-name="Path 37902" d="M18.4,123.1l.216-.7.216.7Z" transform="translate(-18.4 -119.916)" fill="#fff"/>
      <path id="Path_37903" data-name="Path 37903" d="M60.8,123.1l.216-.7.27.7Z" transform="translate(-57.938 -119.916)" fill="#fff"/>
      <path id="Path_37904" data-name="Path 37904" d="M104,123.1l.216-.7.216.7Z" transform="translate(-98.222 -119.916)" fill="#fff"/>
      <path id="Path_37905" data-name="Path 37905" d="M146.4,123.1l.27-.7.216.7Z" transform="translate(-137.759 -119.916)" fill="#fff"/>
      <path id="Path_37906" data-name="Path 37906" d="M189.6,123.1l.216-.7.27.7Z" transform="translate(-178.043 -119.916)" fill="#fff"/>
      <path id="Path_37907" data-name="Path 37907" d="M40,141.5l.216-.7.27.7Z" transform="translate(-38.542 -137.074)" fill="#fff"/>
      <path id="Path_37908" data-name="Path 37908" d="M83.2,141.5l.216-.7.216.7Z" transform="translate(-78.826 -137.074)" fill="#fff"/>
      <path id="Path_37909" data-name="Path 37909" d="M125.6,141.5l.27-.7.216.7Z" transform="translate(-118.363 -137.074)" fill="#fff"/>
      <path id="Path_37910" data-name="Path 37910" d="M168.8,141.5l.216-.7.216.7Z" transform="translate(-158.647 -137.074)" fill="#fff"/>
      <path id="Path_37911" data-name="Path 37911" d="M18.4,159.1l.27-.7.216.7Z" transform="translate(-18.4 -153.486)" fill="#fff"/>
      <path id="Path_37912" data-name="Path 37912" d="M61.6,159.1l.216-.7.27.7Z" transform="translate(-58.684 -153.486)" fill="#fff"/>
      <path id="Path_37913" data-name="Path 37913" d="M104.8,159.1l.216-.7.216.7Z" transform="translate(-98.968 -153.486)" fill="#fff"/>
      <path id="Path_37914" data-name="Path 37914" d="M147.2,159.1l.27-.7.216.7Z" transform="translate(-138.505 -153.486)" fill="#fff"/>
      <path id="Path_37915" data-name="Path 37915" d="M190.4,159.1l.216-.7.216.7Z" transform="translate(-178.789 -153.486)" fill="#fff"/>
      <path id="Path_37916" data-name="Path 37916" d="M40,177.5l.216-.7.27.7Z" transform="translate(-38.542 -170.644)" fill="#fff"/>
      <path id="Path_37917" data-name="Path 37917" d="M83.2,177.5l.216-.7.216.7Z" transform="translate(-78.826 -170.644)" fill="#fff"/>
      <path id="Path_37918" data-name="Path 37918" d="M125.6,177.5l.27-.7.216.7Z" transform="translate(-118.363 -170.644)" fill="#fff"/>
      <path id="Path_37919" data-name="Path 37919" d="M168.8,177.5l.216-.7.27.7Z" transform="translate(-158.647 -170.644)" fill="#fff"/>
      <path id="Path_37920" data-name="Path 37920" d="M19.2,195.9l.216-.7.216.7Z" transform="translate(-19.146 -187.801)" fill="#fff"/>
      <path id="Path_37921" data-name="Path 37921" d="M62.4,195.9l.216-.7.216.7Z" transform="translate(-59.43 -187.801)" fill="#fff"/>
      <path id="Path_37922" data-name="Path 37922" d="M104.8,195.9l.216-.7.27.7Z" transform="translate(-98.968 -187.801)" fill="#fff"/>
      <path id="Path_37923" data-name="Path 37923" d="M148,195.9l.216-.7.216.7Z" transform="translate(-139.251 -187.801)" fill="#fff"/>
      <path id="Path_37924" data-name="Path 37924" d="M190.4,195.9l.27-.7.216.7Z" transform="translate(-178.789 -187.801)" fill="#fff"/>
      <path id="Path_37925" data-name="Path 37925" d="M40,213.556l.216-.756.27.756Z" transform="translate(-38.542 -204.213)" fill="#fff"/>
      <path id="Path_37926" data-name="Path 37926" d="M83.2,213.556l.216-.756.216.756Z" transform="translate(-78.826 -204.213)" fill="#fff"/>
      <path id="Path_37927" data-name="Path 37927" d="M125.6,213.556l.27-.756.216.756Z" transform="translate(-118.363 -204.213)" fill="#fff"/>
      <path id="Path_37928" data-name="Path 37928" d="M168.8,213.556l.216-.756.216.756Z" transform="translate(-158.647 -204.213)" fill="#fff"/>
      <path id="Path_37929" data-name="Path 37929" d="M18.4,231.9l.27-.7.216.7Z" transform="translate(-18.4 -221.371)" fill="#fff"/>
      <path id="Path_37930" data-name="Path 37930" d="M61.6,231.9l.216-.7.216.7Z" transform="translate(-58.684 -221.371)" fill="#fff"/>
      <path id="Path_37931" data-name="Path 37931" d="M104,231.9l.27-.7.216.7Z" transform="translate(-98.222 -221.371)" fill="#fff"/>
      <path id="Path_37932" data-name="Path 37932" d="M147.2,231.9l.216-.7.27.7Z" transform="translate(-138.505 -221.371)" fill="#fff"/>
      <path id="Path_37933" data-name="Path 37933" d="M190.4,231.9l.216-.7.216.7Z" transform="translate(-178.789 -221.371)" fill="#fff"/>
    </g>
  </g>
</svg>
